<?xml version="1.0" encoding="UTF-8" standalone="no"?>
<!DOCTYPE svg PUBLIC "-//W3C//DTD SVG 1.1//EN" "http://www.w3.org/Graphics/SVG/1.1/DTD/svg11.dtd">
<svg width="100%" height="100%" viewBox="0 0 32 32" version="1.1" xmlns="http://www.w3.org/2000/svg" xmlns:xlink="http://www.w3.org/1999/xlink" xml:space="preserve" xmlns:serif="http://www.serif.com/" style="fill-rule:evenodd;clip-rule:evenodd;stroke-linejoin:round;stroke-miterlimit:2;">
    <path d="M11.83,13.83C12.61,14.13 13.2,12.99 12.33,12.75C11.71,12.58 11.09,13.53 11.83,13.83Z" style="fill:rgb(255,187,188);fill-rule:nonzero;"/>
    <path d="M15.26,13.25C15.15,12.56 14.04,12.84 14.32,13.5C14.53,14 15.35,13.81 15.26,13.25Z" style="fill:rgb(255,187,188);fill-rule:nonzero;"/>
    <path d="M17.76,12.6C17.68,12.563 17.592,12.545 17.504,12.545C17.164,12.545 16.884,12.824 16.884,13.165C16.884,13.276 16.914,13.384 16.97,13.48C17.44,14.3 18.8,13.06 17.76,12.6Z" style="fill:rgb(255,187,188);fill-rule:nonzero;"/>
    <path d="M21.38,13C21.02,12.33 19.8,13 20.32,13.65C20.68,14.15 21.7,13.58 21.38,13Z" style="fill:rgb(255,187,188);fill-rule:nonzero;"/>
    <path d="M11.06,18.89C10.77,18.02 9.33,18.77 9.95,19.56C10.4,20.12 11.28,19.52 11.06,18.89Z" style="fill:rgb(255,187,188);fill-rule:nonzero;"/>
    <path d="M15.13,18.22C14.54,17.97 13.79,18.84 14.27,19.35C15,20.09 16.13,18.63 15.13,18.22Z" style="fill:rgb(255,187,188);fill-rule:nonzero;"/>
    <path d="M19.63,18.58C19.18,18.07 18.26,18.58 18.58,19.24C19.1,19.87 20.2,19.2 19.63,18.58Z" style="fill:rgb(255,187,188);fill-rule:nonzero;"/>
    <path d="M23.89,18.77C23.4,18.14 22.39,18.93 22.89,19.44C23.39,19.95 24.42,19.43 23.89,18.77Z" style="fill:rgb(255,187,188);fill-rule:nonzero;"/>
    <path d="M10.3,26.46C10.82,27.13 11.97,26.34 11.38,25.66C11.253,25.489 11.053,25.388 10.84,25.388C10.471,25.388 10.168,25.691 10.168,26.06C10.168,26.204 10.214,26.344 10.3,26.46Z" style="fill:rgb(255,187,188);fill-rule:nonzero;"/>
    <path d="M13.76,26.38C13.901,26.591 14.138,26.718 14.392,26.718C14.809,26.718 15.152,26.375 15.152,25.958C15.152,25.884 15.141,25.811 15.12,25.74C14.64,24.76 13.26,25.59 13.76,26.38Z" style="fill:rgb(255,187,188);fill-rule:nonzero;"/>
    <path d="M17.26,26.34C17.71,27.15 19.26,26.22 18.62,25.52C17.98,24.82 16.8,25.5 17.26,26.34Z" style="fill:rgb(255,187,188);fill-rule:nonzero;"/>
    <path d="M20.78,26.15C21.16,26.94 22.43,26.15 22.05,25.42C21.91,25.241 21.695,25.137 21.468,25.137C21.062,25.137 20.728,25.471 20.728,25.877C20.728,25.97 20.745,26.063 20.78,26.15Z" style="fill:rgb(255,187,188);fill-rule:nonzero;"/>
    <path d="M23.85,25.54C23.27,25.94 23.6,26.84 24.29,26.37C24.98,25.9 24.53,25.07 23.85,25.54Z" style="fill:rgb(255,187,188);fill-rule:nonzero;"/>
    <path d="M11.25,8.8C11.49,8.88 12.19,8.25 11.8,8.27C11.58,8.28 10.75,8.65 11.25,8.8Z" style="fill:rgb(255,187,188);fill-rule:nonzero;"/>
    <path d="M10.34,6.78C10.34,7.05 11.34,6.78 11.18,6.62C11.02,6.46 10.32,6.57 10.34,6.78Z" style="fill:rgb(255,187,188);fill-rule:nonzero;"/>
    <path d="M10.64,4.51C10.4,4.4 10.43,4.67 10.5,4.78C10.652,4.883 10.821,4.957 11,5C11.6,5 10.81,4.59 10.64,4.51Z" style="fill:rgb(255,187,188);fill-rule:nonzero;"/>
    <path d="M12.44,3.35C12.44,3.27 12.18,2.8 12.15,2.79C11.66,2.55 12.15,3.28 12.15,3.4C12.15,3.52 12.4,3.44 12.44,3.35Z" style="fill:rgb(255,187,188);fill-rule:nonzero;"/>
    <path d="M14,1.79C13.82,1.89 14,2.79 14.24,2.7C14.48,2.61 14.27,1.66 14,1.79Z" style="fill:rgb(255,187,188);fill-rule:nonzero;"/>
    <path d="M16.63,2.49C16.634,2.427 16.634,2.363 16.63,2.3C16.63,2.18 16.79,1.63 16.48,1.8C16.37,1.86 16.34,2.4 16.33,2.51C16.3,2.79 16.59,2.54 16.63,2.49Z" style="fill:rgb(255,187,188);fill-rule:nonzero;"/>
    <path d="M18.94,2.54C18.78,2.54 18.13,3.31 18.52,3.33C18.69,3.34 19.25,2.58 18.94,2.54Z" style="fill:rgb(255,187,188);fill-rule:nonzero;"/>
    <path d="M20.39,4.45C20.28,4.14 19.39,4.56 19.39,4.75C19.3,5.1 20.49,4.76 20.39,4.45Z" style="fill:rgb(255,187,188);fill-rule:nonzero;"/>
    <path d="M19.75,6.53C19.946,6.55 20.144,6.55 20.34,6.53C20.43,6.53 20.61,6.23 20.34,6.22C20.07,6.21 19.26,6.13 19.75,6.53Z" style="fill:rgb(255,187,188);fill-rule:nonzero;"/>
    <path d="M20.07,8.4C20.48,8.22 19.63,7.98 19.52,7.99C19.17,8 19.79,8.52 20.07,8.4Z" style="fill:rgb(255,187,188);fill-rule:nonzero;"/>
    <path d="M24.89,28.22C25.34,26.73 26.25,25.46 26.81,24.02C27.37,22.58 27.08,21.4 25.69,20.82C26.46,19.32 28.12,16.05 25.69,15.18L25.26,15L25,15C24.46,14.86 23.91,14.72 23.36,14.61C23.761,13.708 23.849,12.698 23.61,11.74C23.285,10.805 22.516,10.089 21.56,9.83C20.663,9.595 19.736,9.494 18.81,9.53C18.05,9.53 17.28,9.42 16.52,9.44C16.917,8.939 17.253,8.391 17.52,7.81C18,7.143 18.306,6.366 18.41,5.55C18.41,4.7 17.86,3.8 16.91,4.09C15.96,4.38 15.66,5.38 15.5,6.09C15.281,5.02 14.311,4.258 13.22,4.3C12.12,4.44 12.02,5.7 12.3,6.53C12.74,7.87 13.99,8.6 15,9.53C14.79,9.35 13.59,9.53 13.36,9.6C12.173,9.624 11.021,10.011 10.06,10.71C9.512,11.252 9.275,12.035 9.43,12.79C9.56,13.71 10.11,14.25 10.3,15.13C9.19,15.33 8.01,15.89 7.84,17.13C7.767,18.163 7.968,19.198 8.42,20.13C8.569,20.448 8.75,20.749 8.96,21.03C8.385,21.188 7.882,21.541 7.54,22.03C7.1,22.88 7.61,23.9 7.93,24.67C8.38,25.75 9.56,28.02 9.46,28.14C9.35,28.48 7.63,28.35 6.81,28.41C6.18,28.46 5.99,28.84 5.97,29.41C5.97,29.82 5.97,30.08 6.26,30.41C6.77,30.87 19.38,30.47 23.34,30.46L26.59,30.46C27.17,30.46 27.94,30.46 28.23,29.86C28.345,29.54 28.37,29.193 28.3,28.86C28.22,28.36 27.99,28.25 27.49,28.28L24.89,28.22ZM10,12.89C10.282,12.849 10.55,12.739 10.78,12.57C11.421,12.011 12.333,11.874 13.11,12.22C14.29,12.77 15.28,12.39 16.41,11.9C16.696,11.763 17.004,11.675 17.32,11.64C17.84,11.681 18.336,11.88 18.74,12.21C19.65,12.676 20.737,12.646 21.62,12.13C21.86,12.04 22.62,11.73 22.9,11.93C23.18,12.13 22.9,13.78 22.71,14.14C22.61,14.35 22.71,14.34 22.51,14.39C22.31,14.387 22.112,14.357 21.92,14.3C21.67,14.3 21.42,14.24 21.17,14.23C19.478,14.135 17.782,14.135 16.09,14.23L14.2,14.33C13.57,14.33 12.93,14.49 12.31,14.6C11.98,14.66 11.64,14.74 11.31,14.77C10.73,14.77 10.89,14.65 10.64,14.16C10.399,13.751 10.185,13.327 10,12.89ZM8.51,18.45C8.681,18.42 8.847,18.363 9,18.28C9.6,18 9.93,17 10.68,17.1C11.43,17.2 11.87,18.04 12.68,17.96C13.49,17.88 13.84,17.05 14.59,16.87C15.175,16.767 15.778,16.897 16.27,17.23C16.712,17.614 17.23,17.901 17.79,18.07C18.656,18.165 19.524,17.885 20.17,17.3C20.628,16.889 21.301,16.812 21.84,17.11C22.11,17.28 22.32,17.52 22.59,17.69C23.376,18.178 24.388,18.126 25.12,17.56C25.67,17.24 26.23,17.32 26.12,18.04C25.977,18.637 25.762,19.215 25.48,19.76C25.08,20.64 24.48,20.42 23.62,20.34C22.139,20.177 20.649,20.123 19.16,20.18C18.09,20.23 17.01,20.26 15.94,20.32L11.24,20.61C10.812,20.663 10.381,20.687 9.95,20.68C9.16,20.63 8.73,19.1 8.51,18.45ZM23.91,28.35C23.24,28.45 11.97,28.54 11.05,28.35C10.38,28.23 10.12,27.82 9.83,27.24C9.43,26.43 8.97,25.38 8.59,24.48C9.26,24.21 9.59,23.39 10.41,23.66C11.23,23.93 11.7,24.49 12.46,24.24C13.22,23.99 13.57,22.9 14.46,22.99C14.89,22.99 15.12,23.34 15.38,23.64C15.709,24.065 16.176,24.362 16.7,24.48C17.26,24.603 17.847,24.479 18.31,24.14C18.61,23.92 18.83,23.51 19.17,23.38C19.76,23.16 20.45,23.66 20.92,23.92C21.802,24.53 22.991,24.472 23.81,23.78C24.33,23.21 24.66,22.54 25.49,23.18C26.32,23.82 25.85,24.51 25.49,25.18C25.173,25.742 24.905,26.331 24.69,26.94C24.46,27.42 24.44,28.23 23.91,28.35ZM15.75,9.4C15.75,9.4 11.61,6.27 13.07,5.11C14.24,4.11 15.55,7.06 15.55,7.06C15.55,7.06 16.23,4.43 17.3,4.67C19.15,5.34 15.75,9.4 15.75,9.4Z" style="fill-rule:nonzero;"/>
    <path d="M10.09,12.15C10.726,11.639 11.491,11.314 12.3,11.21C13.48,11.21 12.92,11.83 14.37,11.81C15.82,11.79 16.08,10.81 17.37,10.81C18.66,10.81 18.46,11.81 19.9,11.89C20.813,11.918 21.712,11.659 22.47,11.15C23.228,10.641 22.61,9.8 16,10C14.472,9.986 12.95,10.192 11.48,10.61C10.786,10.854 10.262,11.435 10.09,12.15Z" style="fill:rgb(255,187,188);fill-rule:nonzero;"/>
    <path d="M8.5,17.85C9.22,17.96 9.32,16.7 10.41,16.53C11.5,16.36 11.55,17.34 12.54,17.29C13.53,17.24 13.48,16.4 14.91,16.24C16.34,16.08 16.84,17.57 18.12,17.55C19.4,17.53 19.89,16.24 21.36,16.25C22.5,16.37 22.78,17.63 23.71,17.43C24.64,17.23 25.8,16.38 26.22,16.75C26.22,16.57 27.28,14.81 17.14,14.95C7,15.09 8.41,17.79 8.5,17.85Z" style="fill:rgb(255,187,188);fill-rule:nonzero;"/>
    <path d="M8.48,23.94C8.58,24.08 9.29,22.89 10.1,22.84C10.91,22.79 11.02,23.74 12.1,23.61C13.18,23.48 13.17,22.36 14.4,22.34C15.63,22.32 16,24 17.05,24C18.1,24 18.05,22.91 19.21,22.74C20.37,22.57 21.38,23.82 22.45,23.74C23.52,23.66 24.1,22.28 24.89,22.23C25.47,22.279 26.004,22.569 26.36,23.03C26.716,23.491 27.69,20.31 17.22,20.87C8.54,20.87 8.22,22.37 8.22,22.37C8.22,22.37 7.78,22.78 8.48,23.94Z" style="fill:rgb(255,187,188);fill-rule:nonzero;"/>
    <path d="M6.86,29C6.54,29.14 6.48,29.5 6.86,29.78C7.24,30.06 27.11,29.78 27.32,29.66C27.53,29.54 27.63,29.02 27.43,28.86C27.23,28.7 22.37,28.99 17.33,29.03C12.29,29.07 7,29 6.86,29Z" style="fill:rgb(255,187,188);fill-rule:nonzero;"/>
</svg>
