<?xml version="1.0" encoding="UTF-8" standalone="no"?>
<!DOCTYPE svg PUBLIC "-//W3C//DTD SVG 1.1//EN" "http://www.w3.org/Graphics/SVG/1.1/DTD/svg11.dtd">
<svg width="100%" height="100%" viewBox="0 0 64 64" version="1.1" xmlns="http://www.w3.org/2000/svg" xmlns:xlink="http://www.w3.org/1999/xlink" xml:space="preserve" xmlns:serif="http://www.serif.com/" style="fill-rule:evenodd;clip-rule:evenodd;stroke-linejoin:round;stroke-miterlimit:2;">
    <g transform="matrix(1.23476,0,0,1.23476,-7.88735,3.81714)">
        <g transform="matrix(1,0,0,1,0.30361,-9.17549)">
            <path d="M37,52L15,52C13.354,52 12,50.646 12,49L12,31C12,29.354 13.354,28 15,28L37,28C38.646,28 40,29.354 40,31L40,49C40,50.646 38.646,52 37,52ZM15,30C14.451,30 14,30.451 14,31L14,49C14,49.549 14.451,50 15,50L37,50C37.549,50 38,49.549 38,49L38,31C38,30.451 37.549,30 37,30L15,30Z" style="fill-rule:nonzero;"/>
        </g>
        <g transform="matrix(1,0,0,1,0.30361,-9.17549)">
            <rect x="39" y="35" width="4" height="10" style="fill:none;"/>
        </g>
        <g transform="matrix(1,0,0,1,0.30361,-9.17549)">
            <path d="M44,46L38,46L38,34L44,34L44,46ZM40,44L42,44L42,36L40,36L40,44Z" style="fill-rule:nonzero;"/>
        </g>
        <g transform="matrix(1,0,0,1,0.30361,-9.17549)">
            <path d="M49.989,51.552C49.257,51.55 48.551,51.278 48.007,50.788L42,45.449L42,34.511L48.158,29.722C48.685,29.312 49.333,29.09 50,29.09C51.645,29.09 52.999,30.444 53,32.089L53,48.546C53.008,49.728 52.31,50.806 51.229,51.283C50.839,51.46 50.417,51.551 49.989,51.552ZM49.335,49.294C49.518,49.457 49.755,49.547 50,49.547C50.549,49.547 51,49.096 51,48.547C51,48.547 51,48.546 51,48.546L51,32.089C50.999,31.541 50.548,31.09 50,31.09C49.778,31.09 49.562,31.164 49.387,31.3L44,35.489L44,44.551L49.335,49.294Z" style="fill-rule:nonzero;"/>
        </g>
        <g transform="matrix(1,0,0,1,0.30361,-9.17549)">
            <circle cx="20" cy="21" r="8" style="fill:none;"/>
        </g>
        <g transform="matrix(1,0,0,1,0.30361,-9.17549)">
            <path d="M20,30C15.063,30 11,25.937 11,21C11,16.063 15.063,12 20,12C24.937,12 29,16.063 29,21C28.995,25.935 24.935,29.995 20,30ZM20,14C16.16,14 13,17.16 13,21C13,24.84 16.16,28 20,28C23.84,28 27,24.84 27,21C26.995,17.162 23.838,14.005 20,14Z" style="fill-rule:nonzero;"/>
        </g>
        <g transform="matrix(1,0,0,1,0.30361,-9.17549)">
            <circle cx="20" cy="21" r="5" style="fill:none;"/>
        </g>
        <g transform="matrix(1,0,0,1,0.30361,-9.17549)">
            <path d="M20,27C16.708,27 14,24.292 14,21C14,17.708 16.708,15 20,15C23.292,15 26,17.708 26,21C25.997,24.29 23.29,26.997 20,27ZM20,17C17.806,17 16,18.806 16,21C16,23.194 17.806,25 20,25C22.194,25 24,23.194 24,21C24,18.806 22.194,17 20,17Z" style="fill-rule:nonzero;"/>
        </g>
        <g transform="matrix(1,0,0,1,0.30361,-9.17549)">
            <circle cx="34" cy="23" r="6" style="fill:none;"/>
        </g>
        <g transform="matrix(1,0,0,1,0.30361,-9.17549)">
            <path d="M34,30C30.16,30 27,26.84 27,23C27,19.16 30.16,16 34,16C37.84,16 41,19.16 41,23C40.995,26.838 37.838,29.995 34,30ZM34,18C31.257,18 29,20.257 29,23C29,25.743 31.257,28 34,28C36.743,28 39,25.743 39,23C38.997,20.258 36.742,18.003 34,18Z" style="fill-rule:nonzero;"/>
        </g>
        <g transform="matrix(1,0,0,1,0.30361,-9.17549)">
            <circle cx="34" cy="23" r="3" style="fill:none;"/>
        </g>
        <g transform="matrix(1,0,0,1,0.30361,-9.17549)">
            <path d="M34,27C31.806,27 30,25.194 30,23C30,20.806 31.806,19 34,19C36.194,19 38,20.806 38,23C38,25.194 36.194,27 34,27ZM34,21C32.903,21 32,21.903 32,23C32,24.097 32.903,25 34,25C35.097,25 36,24.097 36,23C36,21.903 35.097,21 34,21Z" style="fill-rule:nonzero;"/>
        </g>
        <g transform="matrix(1,0,0,1,0.30361,-9.17549)">
            <path d="M21.081,38.609C21.077,39.302 21.354,39.967 21.847,40.453L23.692,42.3L25.592,44.2C25.836,44.446 26.169,44.585 26.515,44.585C26.861,44.585 27.194,44.446 27.438,44.2L29.338,42.3L31.081,40.556C32.025,39.654 32.189,38.191 31.468,37.102C30.979,36.413 30.184,36.002 29.338,36.002C28.647,36.002 27.983,36.277 27.493,36.766L26.518,37.74L25.657,36.879C24.8,35.986 23.44,35.78 22.357,36.379C21.565,36.841 21.078,37.692 21.081,38.609Z" style="fill:rgb(132,40,53);fill-rule:nonzero;"/>
        </g>
        <g transform="matrix(1,0,0,1,0.30361,-9.17549)">
            <path d="M26.512,45.583C25.9,45.585 25.311,45.341 24.88,44.906L21.14,41.16C20.463,40.485 20.082,39.567 20.082,38.611C20.082,37.344 20.751,36.166 21.84,35.518C23.312,34.674 25.185,34.944 26.359,36.17L26.514,36.324L26.781,36.057C27.458,35.38 28.377,35 29.334,35C30.501,35 31.598,35.566 32.275,36.516C33.278,38.002 33.07,40.013 31.784,41.262L28.146,44.906C27.714,45.341 27.125,45.585 26.512,45.583ZM23.637,37.027C23.366,37.025 23.098,37.096 22.864,37.233C22.379,37.521 22.08,38.045 22.08,38.609C22.08,39.033 22.248,39.44 22.548,39.74L26.3,43.494C26.35,43.563 26.43,43.604 26.516,43.604C26.601,43.604 26.681,43.563 26.731,43.494L30.371,39.848C30.974,39.292 31.094,38.376 30.653,37.684C30.378,37.292 29.943,37.043 29.466,37.005C28.996,36.971 28.533,37.141 28.196,37.471L27.222,38.445C26.834,38.833 26.196,38.833 25.808,38.445L24.946,37.584C24.6,37.233 24.13,37.033 23.637,37.027Z" style="fill-rule:nonzero;"/>
        </g>
    </g>
</svg>
