<?xml version="1.0" encoding="UTF-8" standalone="no"?>
<!DOCTYPE svg PUBLIC "-//W3C//DTD SVG 1.1//EN" "http://www.w3.org/Graphics/SVG/1.1/DTD/svg11.dtd">
<svg width="100%" height="100%" viewBox="0 0 512 512" version="1.1" xmlns="http://www.w3.org/2000/svg" xmlns:xlink="http://www.w3.org/1999/xlink" xml:space="preserve" xmlns:serif="http://www.serif.com/" style="fill-rule:evenodd;clip-rule:evenodd;stroke-linecap:round;stroke-linejoin:round;stroke-miterlimit:1.5;">
    <g transform="matrix(1,0,0,1,0,58)">
        <path d="M416.5,411.83L416.5,427C416.5,431.37 420.05,434.93 424.42,434.93L470.78,434.93C475.15,434.93 478.71,431.37 478.71,427L478.71,398.76C476.53,400.92 474.01,402.91 471.06,404.6C465.12,407.99 443.7,410.28 416.5,411.83Z" style="fill:none;fill-rule:nonzero;"/>
        <path d="M309.35,374.82L393.67,374.82C393.59,370.83 394.18,367.009 395.09,363.53L309.29,363.53C310.51,366.82 311.26,371.05 309.35,374.82Z" style="fill:none;fill-rule:nonzero;"/>
        <path d="M33.29,398.76L33.29,427C33.29,431.37 36.85,434.93 41.22,434.93L87.58,434.93C91.95,434.93 95.5,431.37 95.5,427L95.5,411.83C68.3,410.28 46.88,407.99 40.94,404.6C37.99,402.91 35.47,400.92 33.29,398.76Z" style="fill:none;fill-rule:nonzero;"/>
        <path d="M76.29,182.98C76.99,180.78 78.64,174.86 80.69,167.36L52.11,167.36C50.67,167.62 42.34,169.49 40.57,177.55C40.12,179.6 40.64,180.56 41.07,181.09C43.99,184.72 55.07,184.72 60.4,184.72L75.84,184.72C75.98,184.1 76.12,183.51 76.29,182.98Z" style="fill:none;fill-rule:nonzero;"/>
        <path d="M219.05,374.82L292.95,374.82C298.42,374.82 302.019,373.71 303.08,371.7C304.2,369.58 302.9,365.94 301.63,363.53L210.37,363.53C209.1,365.94 207.79,369.58 208.92,371.7C209.98,373.71 213.58,374.82 219.05,374.82Z" style="fill:none;fill-rule:nonzero;"/>
        <path d="M436.16,184.72L451.6,184.72C456.93,184.72 468.01,184.72 470.93,181.09C471.361,180.56 471.88,179.6 471.43,177.55C469.66,169.51 461.361,167.63 459.88,167.36L431.31,167.36C433.35,174.86 435.01,180.78 435.71,182.98C435.87,183.51 436.02,184.1 436.16,184.72Z" style="fill:none;fill-rule:nonzero;"/>
        <path d="M140.43,303.599C147.81,314.509 162.08,315.7 163.16,315.769L348.84,315.769C349.87,315.7 364.18,314.53 371.57,303.599C379.75,291.509 424.82,222.569 430.08,214.519C430.48,207.589 430.97,191.169 429.04,185.099C426.39,176.789 411.18,119.249 410.34,116.049C409.691,113.929 397.74,77.069 348.191,77.069L256.821,77.069C256.541,77.069 256.26,77.029 256.001,76.969C255.731,77.029 255.461,77.069 255.181,77.069L163.811,77.069C113.681,77.069 101.771,115.689 101.651,116.079C101.021,118.469 85.621,176.739 82.961,185.099C81.031,191.169 81.521,207.589 81.921,214.519C87.19,222.57 132.25,291.51 140.43,303.599ZM90.91,184.86L107.85,120.93C109.53,113.44 116.48,99.4 130.86,99.4C131.71,99.38 224.57,97.12 255.18,97.12C255.46,97.12 255.73,97.16 256,97.22C256.26,97.16 256.54,97.12 256.82,97.12C287.429,97.12 380.29,99.38 381.219,99.4C395.509,99.4 402.459,113.44 404.15,120.93L421.089,184.86C421.369,185.91 421.139,187.03 420.48,187.89C419.82,188.75 418.79,189.26 417.709,189.26L256.819,189.26C256.539,189.26 256.258,189.21 255.999,189.15C255.729,189.21 255.459,189.26 255.179,189.26L94.29,189.26C93.21,189.26 92.18,188.75 91.52,187.89C90.86,187.03 90.63,185.91 90.91,184.86Z" style="fill:none;fill-rule:nonzero;"/>
        <path d="M61.48,363.53C61.1,365.65 61.04,369.19 63.43,372.969C67.39,379.219 78.17,386.659 106.15,389.629C112.71,380.9 111.94,371.039 109.63,363.529L61.48,363.529L61.48,363.53Z" style="fill:none;fill-rule:nonzero;"/>
        <path d="M402.37,363.53C400.059,371.04 399.29,380.889 405.849,389.63C433.999,386.64 444.749,379.14 448.65,372.83C450.94,369.13 450.879,365.64 450.509,363.53L402.37,363.53Z" style="fill:none;fill-rule:nonzero;"/>
        <path d="M117.45,381.82C116.79,384.65 115.7,387.5 114.08,390.309C117.41,390.539 120.93,390.709 124.68,390.82C205.2,393.099 220.86,393.099 255.18,393.099C255.46,393.099 255.73,393.15 256,393.209C256.26,393.149 256.54,393.099 256.82,393.099C291.139,393.099 306.799,393.099 387.32,390.82C391.07,390.71 394.59,390.54 397.92,390.309C396.3,387.499 395.21,384.65 394.54,381.82L117.45,381.82Z" style="fill:none;fill-rule:nonzero;"/>
        <path d="M459.63,225.96C449.62,221.19 439.45,219.74 435.3,219.32C427.79,230.8 385.31,295.78 377.37,307.52C367.73,321.76 349.86,322.741 349.099,322.77L162.89,322.77C162.14,322.741 144.27,321.76 134.63,307.52C126.69,295.781 84.2,230.8 76.69,219.32C72.55,219.73 62.38,221.19 52.37,225.96C35.62,233.94 27.13,247.13 27.13,265.18L27.13,366.51C27.14,366.67 27.75,389 44.41,398.52C57.51,406 178.11,408.26 255.99,407.96L256.01,407.96C333.88,408.26 454.49,406 467.59,398.52C484.25,389 484.861,366.67 484.87,366.451L484.87,265.179C484.87,247.13 476.38,233.94 459.63,225.96ZM454.6,376.51C447.89,387.37 431.22,394.151 404.991,396.74C404.761,396.79 404.541,396.809 404.321,396.809L404.3,396.809C399.08,397.309 393.49,397.65 387.52,397.82C306.901,400.099 291.21,400.099 256.821,400.099C256.541,400.099 256.26,400.059 256.001,399.999C255.731,400.059 255.461,400.099 255.181,400.099C220.791,400.099 205.101,400.099 124.481,397.82C118.511,397.65 112.921,397.309 107.701,396.809L107.681,396.809C107.461,396.809 107.241,396.789 107.021,396.74C80.781,394.15 64.111,387.37 57.401,376.51C51.731,367.35 55.531,358.91 55.691,358.56C56.271,357.321 57.501,356.531 58.871,356.531L453.131,356.531C454.501,356.531 455.732,357.321 456.311,358.56C456.47,358.91 460.27,367.349 454.6,376.51Z" style="fill:none;fill-rule:nonzero;"/>
        <path d="M202.65,374.82C200.74,371.049 201.49,366.82 202.71,363.53L116.91,363.53C117.82,367.009 118.41,370.83 118.33,374.82L202.65,374.82Z" style="fill:none;fill-rule:nonzero;"/>
        <path d="M94.29,189.26L255.18,189.26C255.46,189.26 255.73,189.21 256,189.15C256.26,189.21 256.54,189.26 256.82,189.26L417.71,189.26C418.79,189.26 419.82,188.75 420.481,187.89C421.14,187.03 421.371,185.91 421.09,184.86L404.151,120.93C402.461,113.44 395.51,99.4 381.22,99.4C380.29,99.38 287.43,97.12 256.821,97.12C256.541,97.12 256.26,97.16 256.001,97.22C255.731,97.16 255.461,97.12 255.181,97.12C224.571,97.12 131.711,99.38 130.861,99.4C116.481,99.4 109.531,113.44 107.851,120.93L90.911,184.86C90.631,185.91 90.861,187.03 91.521,187.89C92.18,188.75 93.21,189.26 94.29,189.26ZM114.63,122.66C114.64,122.61 114.65,122.57 114.66,122.53C114.81,121.87 118.47,106.4 130.95,106.4C131.88,106.38 224.66,104.12 255.18,104.12C255.46,104.12 255.73,104.07 256,104.01C256.26,104.07 256.54,104.12 256.82,104.12C287.34,104.12 380.12,106.38 381.139,106.4C393.53,106.4 397.19,121.87 397.329,122.52C397.349,122.56 397.359,122.61 397.369,122.66L413.159,182.26L256.819,182.26C256.539,182.26 256.258,182.3 255.999,182.36C255.729,182.3 255.459,182.26 255.179,182.26L98.84,182.26L114.63,122.66Z" style="fill-rule:nonzero;"/>
        <path d="M462.43,219.54C452.34,214.77 442.33,213.07 437.201,212.47C437.421,207.67 437.691,199 437.121,191.72L451.6,191.72C461.6,191.72 471.75,191.24 476.38,185.48C477.8,183.72 479.28,180.65 478.26,176.04C475.31,162.6 461.26,160.48 460.66,160.39C460.5,160.37 460.34,160.36 460.17,160.36L429.41,160.36C423.98,140.28 417.19,114.56 417.059,114.11C416.929,113.65 413.669,102.81 403.499,91.94C394.169,81.97 376.989,70.07 348.189,70.07L256.819,70.07C256.539,70.07 256.258,70.12 255.999,70.18C255.729,70.12 255.459,70.07 255.179,70.07L163.809,70.07C135.009,70.07 117.829,81.97 108.499,91.94C98.329,102.81 95.069,113.65 94.909,114.2C94.809,114.6 88.019,140.28 82.589,160.36L51.83,160.36C51.66,160.36 51.5,160.37 51.34,160.39C50.74,160.48 36.69,162.6 33.73,176.05C32.72,180.65 34.2,183.72 35.62,185.48C40.25,191.24 50.4,191.72 60.4,191.72L74.87,191.72C74.31,199 74.58,207.67 74.8,212.47C69.66,213.07 59.66,214.77 49.56,219.54C30.31,228.64 20.13,244.42 20.13,265.18L20.13,366.57C20.14,367.269 20.42,378.46 26.29,389.32L26.29,427C26.29,435.23 32.99,441.93 41.22,441.93L87.58,441.93C95.81,441.93 102.5,435.231 102.5,427L102.5,412.2C151.54,414.679 215.72,414.98 243.75,414.98C249.51,414.98 253.74,414.969 256,414.959C258.26,414.969 262.49,414.98 268.25,414.98C296.28,414.98 360.46,414.679 409.5,412.2L409.5,427C409.5,435.23 416.19,441.93 424.42,441.93L470.78,441.93C479.009,441.93 485.71,435.231 485.71,427L485.71,389.31C491.58,378.451 491.86,367.25 491.87,366.51L491.87,265.18C491.87,244.42 481.691,228.64 462.43,219.54ZM459.88,167.36C461.36,167.63 469.66,169.51 471.43,177.55C471.88,179.6 471.361,180.56 470.93,181.09C468.01,184.72 456.93,184.72 451.6,184.72L436.16,184.72C436.019,184.1 435.87,183.51 435.71,182.98C435.01,180.78 433.35,174.86 431.31,167.36L459.88,167.36ZM82.96,185.1C85.62,176.74 101.02,118.47 101.65,116.08C101.77,115.69 113.68,77.07 163.81,77.07L255.18,77.07C255.46,77.07 255.73,77.03 256,76.97C256.26,77.03 256.54,77.07 256.82,77.07L348.19,77.07C397.74,77.07 409.69,113.93 410.339,116.05C411.179,119.25 426.389,176.79 429.039,185.1C430.969,191.17 430.479,207.59 430.079,214.52C424.819,222.57 379.749,291.51 371.569,303.6C364.178,314.531 349.869,315.701 348.839,315.77L163.16,315.77C162.08,315.701 147.81,314.51 140.43,303.6C132.25,291.51 87.19,222.57 81.92,214.52C81.52,207.59 81.03,191.17 82.96,185.1ZM60.4,184.72C55.07,184.72 43.99,184.72 41.07,181.09C40.64,180.56 40.12,179.6 40.57,177.55C42.34,169.49 50.67,167.62 52.11,167.36L80.69,167.36C78.64,174.86 76.99,180.78 76.29,182.98C76.12,183.51 75.98,184.1 75.84,184.72L60.4,184.72ZM95.5,427C95.5,431.37 91.95,434.93 87.58,434.93L41.22,434.93C36.85,434.93 33.29,431.37 33.29,427L33.29,398.76C35.47,400.92 37.99,402.91 40.94,404.6C46.88,407.991 68.3,410.281 95.5,411.83L95.5,427ZM478.71,427C478.71,431.37 475.15,434.93 470.78,434.93L424.42,434.93C420.05,434.93 416.5,431.37 416.5,427L416.5,411.83C443.7,410.28 465.12,407.99 471.06,404.6C474.01,402.911 476.531,400.92 478.71,398.76L478.71,427ZM484.87,366.45C484.86,366.67 484.25,389 467.59,398.519C454.49,405.999 333.88,408.259 256.01,407.959L255.99,407.959C178.11,408.259 57.51,405.999 44.41,398.519C27.75,388.999 27.14,366.669 27.13,366.509L27.13,265.179C27.13,247.129 35.62,233.939 52.37,225.959C62.38,221.189 72.55,219.729 76.69,219.319C84.2,230.799 126.69,295.779 134.63,307.519C144.27,321.759 162.14,322.74 162.89,322.769L349.1,322.769C349.861,322.74 367.731,321.759 377.371,307.519C385.31,295.78 427.791,230.799 435.301,219.319C439.451,219.739 449.621,221.189 459.631,225.959C476.381,233.939 484.871,247.129 484.871,265.179L484.871,366.45L484.87,366.45Z" style="fill-rule:nonzero;"/>
        <path d="M453.13,356.53L58.87,356.53C57.5,356.53 56.27,357.32 55.69,358.559C55.53,358.91 51.73,367.349 57.4,376.509C64.11,387.369 80.78,394.15 107.02,396.739C107.24,396.789 107.46,396.808 107.68,396.808L107.7,396.808C112.92,397.308 118.51,397.649 124.48,397.819C205.1,400.098 220.79,400.098 255.18,400.098C255.46,400.098 255.73,400.058 256,399.998C256.26,400.058 256.54,400.098 256.82,400.098C291.21,400.098 306.9,400.098 387.519,397.819C393.49,397.649 399.08,397.308 404.299,396.808L404.32,396.808C404.54,396.808 404.759,396.788 404.99,396.739C431.219,394.149 447.889,387.369 454.599,376.509C460.269,367.349 456.469,358.909 456.309,358.559C455.731,357.32 454.5,356.53 453.13,356.53ZM395.09,363.53C394.18,367.009 393.59,370.83 393.67,374.82L309.35,374.82C311.26,371.049 310.51,366.82 309.29,363.53L395.09,363.53ZM210.37,363.53L301.63,363.53C302.901,365.94 304.2,369.58 303.08,371.7C302.019,373.71 298.42,374.82 292.95,374.82L219.05,374.82C213.58,374.82 209.98,373.71 208.92,371.7C207.79,369.58 209.1,365.94 210.37,363.53ZM202.71,363.53C201.49,366.82 200.74,371.05 202.65,374.82L118.33,374.82C118.41,370.83 117.82,367.009 116.91,363.53L202.71,363.53ZM106.15,389.63C78.17,386.66 67.39,379.22 63.43,372.97C61.04,369.191 61.1,365.651 61.48,363.531L109.63,363.531C111.94,371.04 112.71,380.9 106.15,389.63ZM387.321,390.82C306.8,393.099 291.14,393.099 256.821,393.099C256.541,393.099 256.26,393.15 256.001,393.209C255.731,393.149 255.461,393.099 255.181,393.099C220.861,393.099 205.201,393.099 124.681,390.82C120.931,390.71 117.411,390.54 114.081,390.309C115.701,387.499 116.791,384.65 117.451,381.82L394.541,381.82C395.211,384.65 396.301,387.5 397.921,390.309C394.59,390.54 391.071,390.71 387.321,390.82ZM448.651,372.83C444.751,379.14 434.001,386.64 405.85,389.63C399.29,380.89 400.06,371.04 402.371,363.53L450.511,363.53C450.88,365.639 450.941,369.13 448.651,372.83Z" style="fill-rule:nonzero;"/>
    </g>
    <g transform="matrix(5.13532,0,0,5.13532,40.32,326.807)">
        <path d="M0,3.493C-0.005,4.348 0.337,5.17 0.946,5.77L3.224,8.051L5.57,10.397C5.871,10.701 6.282,10.872 6.71,10.872C7.138,10.872 7.548,10.701 7.849,10.397L10.196,8.051L12.348,5.897C13.514,4.783 13.716,2.977 12.826,1.632C12.221,0.781 11.24,0.275 10.196,0.275C9.342,0.275 8.522,0.614 7.917,1.218L6.714,2.42L5.65,1.357C4.593,0.255 2.912,0 1.576,0.74C0.598,1.31 -0.003,2.361 0,3.493Z" style="fill:rgb(132,40,53);fill-rule:nonzero;"/>
    </g>
    <g transform="matrix(1.94474,5.79276,-5.79276,1.94474,313.235,46.1283)">
        <path d="M0,3.493C-0.005,4.348 0.337,5.17 0.946,5.77L3.224,8.051L5.57,10.397C5.871,10.701 6.282,10.872 6.71,10.872C7.138,10.872 7.548,10.701 7.849,10.397L10.196,8.051L12.348,5.897C13.514,4.783 13.716,2.977 12.826,1.632C12.221,0.781 11.24,0.275 10.196,0.275C9.342,0.275 8.522,0.614 7.917,1.218L6.714,2.42L5.65,1.357C4.593,0.255 2.912,0 1.576,0.74C0.598,1.31 -0.003,2.361 0,3.493Z" style="fill:rgb(132,40,53);fill-rule:nonzero;"/>
    </g>
    <g transform="matrix(8.59034,-3.02817,3.02817,8.59034,150.688,45.7349)">
        <path d="M0,3.493C-0.005,4.348 0.337,5.17 0.946,5.77L3.224,8.051L5.57,10.397C5.871,10.701 6.282,10.872 6.71,10.872C7.138,10.872 7.548,10.701 7.849,10.397L10.196,8.051L12.348,5.897C13.514,4.783 13.716,2.977 12.826,1.632C12.221,0.781 11.24,0.275 10.196,0.275C9.342,0.275 8.522,0.614 7.917,1.218L6.714,2.42L5.65,1.357C4.593,0.255 2.912,0 1.576,0.74C0.598,1.31 -0.003,2.361 0,3.493Z" style="fill:rgb(132,40,53);fill-rule:nonzero;"/>
    </g>
    <g transform="matrix(5.13532,0,0,5.13532,402.973,326.807)">
        <path d="M0,3.493C-0.005,4.348 0.337,5.17 0.946,5.77L3.224,8.051L5.57,10.397C5.871,10.701 6.282,10.872 6.71,10.872C7.138,10.872 7.548,10.701 7.849,10.397L10.196,8.051L12.348,5.897C13.514,4.783 13.716,2.977 12.826,1.632C12.221,0.781 11.24,0.275 10.196,0.275C9.342,0.275 8.522,0.614 7.917,1.218L6.714,2.42L5.65,1.357C4.593,0.255 2.912,0 1.576,0.74C0.598,1.31 -0.003,2.361 0,3.493Z" style="fill:rgb(132,40,53);fill-rule:nonzero;"/>
    </g>
    <g transform="matrix(0.754029,-0.217304,0.218213,0.757184,75.6712,108.651)">
        <path d="M323.444,39.957L361.297,10.401" style="fill:none;stroke:rgb(132,40,53);stroke-width:10.81px;"/>
    </g>
    <g transform="matrix(-0.0491231,-0.707073,0.819189,-0.0569122,241.267,463.014)">
        <path d="M323.444,39.957L361.297,10.401" style="fill:none;stroke:black;stroke-width:11.08px;"/>
    </g>
    <g transform="matrix(-0.0543862,-0.78283,0.786105,-0.0546138,288.96,470.477)">
        <path d="M323.444,39.957L361.297,10.401" style="fill:none;stroke:black;stroke-width:10.81px;"/>
    </g>
    <g transform="matrix(-0.116183,-1.67232,1.8462,-0.128262,254.741,778.224)">
        <path d="M323.444,39.957L361.297,10.401" style="fill:none;stroke:black;stroke-width:4.81px;"/>
    </g>
    <g transform="matrix(0.809009,0.174081,-0.166268,0.772699,79.5347,-3.46786)">
        <path d="M323.444,39.957L361.297,10.401" style="fill:none;stroke:rgb(132,40,53);stroke-width:10.5px;"/>
    </g>
    <g transform="matrix(0.597497,0.625188,-0.597672,0.5712,170.395,-122.095)">
        <path d="M323.444,39.957L361.297,10.401" style="fill:none;stroke:rgb(132,40,53);stroke-width:10.05px;"/>
    </g>
</svg>
