<?xml version="1.0" encoding="UTF-8" standalone="no"?>
<!DOCTYPE svg PUBLIC "-//W3C//DTD SVG 1.1//EN" "http://www.w3.org/Graphics/SVG/1.1/DTD/svg11.dtd">
<svg width="100%" height="100%" viewBox="0 0 80 80" version="1.1" xmlns="http://www.w3.org/2000/svg" xmlns:xlink="http://www.w3.org/1999/xlink" xml:space="preserve" xmlns:serif="http://www.serif.com/" style="fill-rule:evenodd;clip-rule:evenodd;stroke-linecap:round;stroke-linejoin:round;stroke-miterlimit:1.5;">
    <g transform="matrix(1.33186,0,0,1.34652,-12.6602,-11.3778)">
        <path d="M17.091,58.381C27.793,58.62 54.811,58.361 61.635,58.381C66.047,58.394 59.43,27.074 39,27.478C14.509,27.963 12.542,58.279 17.091,58.381Z" style="fill:none;stroke:black;stroke-width:1.24px;"/>
    </g>
    <g transform="matrix(1.64453,0,0,1.73827,-4.24252,-53.3471)">
        <path d="M21.081,38.609C21.077,39.302 21.354,39.967 21.847,40.453L23.692,42.3L25.592,44.2C25.836,44.446 26.169,44.585 26.515,44.585C26.861,44.585 27.194,44.446 27.438,44.2L29.338,42.3L31.081,40.556C32.025,39.654 32.189,38.191 31.468,37.102C30.979,36.413 30.184,36.002 29.338,36.002C28.647,36.002 27.983,36.277 27.493,36.766L26.518,37.74L25.657,36.879C24.8,35.986 23.44,35.78 22.357,36.379C21.565,36.841 21.078,37.692 21.081,38.609Z" style="fill:rgb(132,40,53);fill-rule:nonzero;"/>
    </g>
    <g transform="matrix(1.33186,0,0,2.02349,-13.8549,-51.0023)">
        <path d="M68.812,59.387C68.812,58.957 68.282,58.609 67.629,58.609L13.187,58.609C12.535,58.609 12.005,58.957 12.005,59.387L12.005,60.944C12.005,61.374 12.535,61.723 13.187,61.723L67.629,61.723C68.282,61.723 68.812,61.374 68.812,60.944L68.812,59.387Z" style="fill:none;stroke:black;stroke-width:0.97px;"/>
    </g>
    <g transform="matrix(1.31024,-0.25264,0.239016,1.38492,-5.29275,-4.97925)">
        <path d="M17.854,11.37C15.853,12.844 15.129,13.948 14.868,14.554C14.813,14.894 14.921,15.242 15.163,15.503C15.643,16.08 16.537,17.049 17.309,17.886C18.116,18.759 18.064,20.068 17.192,20.85C15.981,21.937 14.507,23.26 14.507,23.26" style="fill:none;stroke:black;stroke-width:1.23px;"/>
    </g>
    <g transform="matrix(1.31024,-0.25264,0.239016,1.38492,-12.7957,2.30684)">
        <path d="M17.854,11.37C15.853,12.844 15.129,13.948 14.868,14.554C14.813,14.894 14.921,15.242 15.163,15.503C15.643,16.08 16.537,17.049 17.309,17.886C18.116,18.759 18.064,20.068 17.192,20.85C15.981,21.937 14.507,23.26 14.507,23.26" style="fill:none;stroke:black;stroke-width:1.23px;"/>
    </g>
    <g transform="matrix(1.31024,-0.25264,0.239016,1.38492,31.3049,-4.01911)">
        <path d="M17.854,11.37C15.853,12.844 15.129,13.948 14.868,14.554C14.813,14.894 14.921,15.242 15.163,15.503C15.643,16.08 16.537,17.049 17.309,17.886C18.116,18.759 18.064,20.068 17.192,20.85C15.981,21.937 14.507,23.26 14.507,23.26" style="fill:none;stroke:black;stroke-width:1.23px;"/>
    </g>
    <g transform="matrix(1.31024,-0.25264,0.239016,1.38492,41.4524,7.8161)">
        <path d="M17.854,11.37C15.853,12.844 15.129,13.948 14.868,14.554C14.813,14.894 14.921,15.242 15.163,15.503C15.643,16.08 16.537,17.049 17.309,17.886C18.116,18.759 18.064,20.068 17.192,20.85C15.981,21.937 14.507,23.26 14.507,23.26" style="fill:none;stroke:black;stroke-width:1.23px;"/>
    </g>
    <g transform="matrix(-0.0180355,-0.259601,0.299687,-0.0208204,31.5143,142.466)">
        <path d="M323.444,39.957L361.297,10.401" style="fill:none;stroke:black;stroke-width:3.8px;"/>
    </g>
    <g transform="matrix(-0.0192067,-0.27646,0.291237,-0.0202334,43.9929,145.6)">
        <path d="M323.444,39.957L361.297,10.401" style="fill:none;stroke:black;stroke-width:3.7px;"/>
    </g>
    <g transform="matrix(-0.0396731,-0.571049,0.643946,-0.0447372,37.8682,249.371)">
        <path d="M325.574,38.119L361.297,10.401" style="fill:none;stroke:black;stroke-width:1.65px;"/>
    </g>
</svg>
