<?xml version="1.0" encoding="UTF-8" standalone="no"?>
<!DOCTYPE svg PUBLIC "-//W3C//DTD SVG 1.1//EN" "http://www.w3.org/Graphics/SVG/1.1/DTD/svg11.dtd">
<svg width="100%" height="100%" viewBox="0 0 1024 1024" version="1.1" xmlns="http://www.w3.org/2000/svg" xmlns:xlink="http://www.w3.org/1999/xlink" xml:space="preserve" xmlns:serif="http://www.serif.com/" style="fill-rule:evenodd;clip-rule:evenodd;stroke-linejoin:round;stroke-miterlimit:2;">
    <g transform="matrix(-1,0,0,1,984,0)">
        <path d="M684.3,956.7C691,953.4 697.5,946.4 700.3,939.3C701.9,935.4 702.4,931.5 702.7,919C703.3,895.2 701.3,887.5 692.1,878.5L688,874.6L688,845L702.5,845C737.8,845 773.1,837.4 800.5,824C815.1,816.8 820,814 828.5,807.7C832.7,804.6 836.5,802 836.9,802C838.4,802 861.5,777.5 866.2,771C871.6,763.4 877,753.3 879,747.3C879.7,745 880.7,743.3 881.1,743.6C881.6,743.9 882,743 882,741.7C882,740.3 883.4,734.8 885,729.4C898,687.2 899.3,639.8 888.6,600.4C887.1,595 885.4,589.6 885,588.5C884.5,587.4 882.9,583.6 881.4,580C865.3,540.6 835.4,507.1 792.8,480.6C733.5,443.7 687.3,407.1 634.7,355.1C614.5,335.2 588,307.3 578.1,295.5C576.2,293.3 571.8,288.2 568.1,284.1C564.5,280 559.3,274 556.6,270.6C553.9,267.2 548.5,260.7 544.5,256C513.9,219.8 467.8,155.2 429.6,95C423.1,84.8 416.2,74.8 414.2,72.8C406.6,64.9 386.232,58.712 375.932,62.312C367.932,65.112 199.757,530.412 206.457,534.612C216.857,541.112 240,543.6 255.1,538.5C268.9,533.7 314.5,520.6 324,518.6C351.5,512.8 367.6,509.7 382.5,507.5C446.4,497.7 505.9,496.6 566,504.1C602.6,508.6 633,515.7 671,528.5C683.4,532.6 694.1,536.2 694.8,536.3C695.5,536.5 696.6,537.2 697.2,537.8C697.9,538.5 699,539 699.8,539C700.6,539 702.4,539.7 703.8,540.5C705.3,541.3 712.3,544.7 719.5,548C737,556.2 750.2,565.3 763.1,578C779.6,594.4 789.4,609.9 795.9,630.3C800.8,645.6 802.3,656.4 801.7,671.5C800.9,691.6 797,702.6 785.6,716.8C769.5,736.9 736.3,750.1 699.5,751.2L688.5,751.5L687.5,686.3L684,679.4C680.2,671.9 673.5,665.9 666.8,663.8L663,662.7L663,645.6C663,636.2 662.5,625.6 662,622C660.1,609 651.6,596.6 640,589.7C630.1,583.9 631.6,584 535.7,584L447.8,584L442.5,579.2C433.8,571.2 423,569.9 413.4,575.5C405.6,580.1 401.8,586.8 401.8,596C401.8,603.3 403.8,608 409.4,613.4C413.5,617.3 414,618.3 414,622.3L414,626.7L406.2,627.2C395,627.8 391,631.2 391,640.1C391,643.4 391.7,644.9 394.4,647.6L397.8,651L618.2,651L621.6,647.6C624.5,644.7 625,643.5 625,639.6C625,635.7 624.4,634.4 621.6,631.2L618.2,627.5L528.1,627.2L438,627L438,622C438,617.5 438.3,616.8 442.8,612.6L447.5,608L536.2,608.3L624.8,608.5L629.2,611.5C631.7,613.3 634.4,616.4 635.8,619C637.8,623.1 638,624.7 638,642.2L638,661L496.3,661.2L354.5,661.5L348.9,663.8C340.9,667 335.6,671.9 331.8,679.8L328.5,686.5L327.9,750.9L288.3,751.5L283.5,754.5C280.8,756.2 277.1,759.5 275.3,761.8C269.8,769.1 269,773.6 269,799C269,815.2 268.7,821.9 267.8,822.8C267.1,823.5 263.3,824 257.9,824C250.5,824 248.4,823.6 242.8,821.1C211.8,807 151.4,810.2 133,826.8C129.7,829.8 128.9,831.4 128.4,835C127.9,839 128.2,839.9 130.9,843.1C132.6,845.2 137,848.2 141.2,850.3C166.1,862.6 213.6,863.2 241.5,851.5C248.8,848.4 250.5,848.1 262,847.8C273.7,847.4 274.8,847.2 278.9,844.6C284.7,840.9 288.7,836.5 291.4,831C293.3,826.9 293.5,824.4 294,801L294.5,775.5L311.3,775.2L328,775L328,874.8L324.7,877.7C315.4,885.9 314.1,890.4 314,914.9C313.9,931.7 314.1,935.4 315.6,938.6C316.5,940.8 317.4,942.7 317.5,943C317.5,943.3 318.5,945 319.7,946.8C322.4,951.1 328.7,955.7 335.2,958C340.3,959.9 345.5,959.9 509.5,959.7L678.5,959.5L684.3,956.7Z" style="fill:none;fill-rule:nonzero;stroke:black;stroke-width:13.33px;"/>
    </g>
    <g transform="matrix(-1,0,0,1,984,0)">
        <path d="M346,928L346,902L670,902L670,928L346,928Z" style="fill:none;fill-rule:nonzero;stroke:black;stroke-width:13.33px;"/>
    </g>
    <g transform="matrix(-1,0,0,1,984,0)">
        <path d="M361,870L361,694L403.8,693.9C442.8,693.9 497.2,693.9 612.8,694L655,694L655,870L361,870Z" style="fill:none;fill-rule:nonzero;stroke:black;stroke-width:13.33px;"/>
    </g>
    <g transform="matrix(-1,0,0,1,984,0)">
        <path d="M688,813.3L688,784.2L700.3,783.5C729.1,781.9 755.5,775.5 776.2,764.9C805.1,750.2 827.4,721 832.4,691.3C837.6,660.6 833.3,630.9 819.3,601.4C816.7,596 814.6,591.3 814.5,591C814.5,590.7 813.1,588.6 811.5,586.2C785.2,548.4 760.8,529.4 713,509.7C680.1,496.1 645.9,485.8 611.8,479.1C526.8,462.4 436.3,463.4 342.5,482.1C323.6,485.8 295,492.5 285,495.5C266.9,500.9 261.3,502.6 252.6,505.7C247.1,507.5 242.1,508.9 241.4,508.6C240.3,508.2 387.3,99.2 390.6,98C392.4,97.3 393.2,98.1 396.6,103.6C414.3,132.5 463,203.8 481.9,228.4C486.1,233.8 491.8,241.3 494.5,245C501.5,254.5 518.6,275.7 520,276.5C520.6,276.9 522.1,278.8 523.4,280.8C525.9,284.8 547.1,309.7 560.9,325C565.7,330.2 570.9,336.1 572.5,338C579.9,346.5 631.9,398 645.5,410.1C670,432 696.5,453.8 713.8,466C717.3,468.5 722.2,472.1 724.8,474.1C732.2,479.8 756.2,495.8 773.6,506.6C793.1,518.7 805.6,528.6 818.5,542.2C836.4,560.9 848.4,580.8 856,603.8C862.3,623.3 863.5,632.1 863.4,658.5C863.3,682.8 862.2,692.2 857.1,710C855.9,714.1 854.7,718.6 854.5,720C854.2,721.4 853.3,724.1 852.5,726C851.8,727.9 849.9,732.6 848.4,736.5C844.5,746.7 839.1,754.1 826.6,766.5C806,787 780.5,800.6 750,807.4C732.8,811.2 726.2,812 706.3,812.7L688,813.3Z" style="fill:none;fill-rule:nonzero;stroke:black;stroke-width:13.33px;"/>
    </g>
    <g transform="matrix(1.49071,0,0,1.55568,427.871,741.199)">
        <path d="M0,17.938C-0.024,22.329 1.729,26.549 4.857,29.631L16.556,41.342L28.604,53.39C30.151,54.951 32.259,55.829 34.456,55.829C36.654,55.829 38.762,54.951 40.309,53.39L52.357,41.342L63.409,30.284C69.397,24.564 70.437,15.286 65.863,8.382C62.759,4.013 57.72,1.411 52.359,1.411C47.973,1.411 43.762,3.153 40.658,6.252L34.476,12.428L29.016,6.969C23.584,1.307 14.956,0 8.091,3.798C3.072,6.728 -0.018,12.127 0,17.938Z" style="fill:rgb(132,40,53);fill-rule:nonzero;"/>
    </g>
    <g transform="matrix(1.87235,0,0,1.87235,753.733,30.2282)">
        <g transform="matrix(1,0,0,1,3.20453,0)">
            <path d="M57.928,11.35C64.429,16.936 70.924,22.533 77.472,28.064C81.021,31.063 86.186,25.951 82.609,22.927C74.121,15.757 65.54,8.692 57.006,1.575C54.825,-0.242 51.152,0.835 51.171,3.992C51.238,16.096 50.937,50.004 50.884,54.86C40.209,50.282 25.538,54.464 17.316,61.511C12.502,65.638 7.691,71.813 8.697,78.552C9.547,84.261 14.184,87.97 19.391,89.663C30.068,93.134 44.249,89.69 51.607,81.085C58.131,73.455 56.843,62.453 57.087,53.09C57.451,39.18 57.765,25.266 57.928,11.35ZM31.921,84.666C23.182,85.899 9.039,81.781 16.906,70.571C20.487,65.471 25.723,61.706 31.649,59.86C37.237,58.118 44.757,56.988 50.82,58.696C50.751,61.99 50.631,65.282 50.403,68.554C49.734,78.138 40.627,83.443 31.921,84.666Z" style="fill-rule:nonzero;"/>
        </g>
        <g transform="matrix(1,0,0,1,13.5843,93.3418)">
            <path d="M57.928,11.35C64.429,16.936 71.747,21.684 77.472,28.064C88.603,40.469 95.442,34.524 91.865,31.5C83.377,24.33 65.54,8.692 57.006,1.575C54.825,-0.242 51.152,0.835 51.171,3.992C51.238,16.096 50.937,50.004 50.884,54.86C40.209,50.282 25.538,54.464 17.316,61.511C12.502,65.638 7.691,71.813 8.697,78.552C9.547,84.261 14.184,87.97 19.391,89.663C30.068,93.134 44.249,89.69 51.607,81.085C58.131,73.455 56.843,62.453 57.087,53.09C57.451,39.18 57.765,25.266 57.928,11.35ZM31.921,84.666C23.182,85.899 9.039,81.781 16.906,70.571C20.487,65.471 25.723,61.706 31.649,59.86C37.237,58.118 44.757,56.988 50.82,58.696C50.751,61.99 50.631,65.282 50.403,68.554C49.734,78.138 40.627,83.443 31.921,84.666Z" style="fill-rule:nonzero;"/>
        </g>
        <g transform="matrix(1,2.44929e-16,-2.44929e-16,1,45.2799,120.426)">
            <path d="M57.928,11.35C57.928,11.35 65.54,8.692 57.006,1.575C54.825,-0.242 51.152,0.835 51.171,3.992C51.238,16.096 50.937,50.004 50.884,54.86C40.209,50.282 25.538,54.464 17.316,61.511C12.502,65.638 7.691,71.813 8.697,78.552C9.547,84.261 14.184,87.97 19.391,89.663C30.068,93.134 44.249,89.69 51.607,81.085C58.131,73.455 56.843,62.453 57.087,53.09C57.451,39.18 57.928,11.35 57.928,11.35ZM31.921,84.666C23.182,85.899 9.039,81.781 16.906,70.571C20.487,65.471 25.723,61.706 31.649,59.86C37.237,58.118 44.757,56.988 50.82,58.696C50.751,61.99 50.631,65.282 50.403,68.554C49.734,78.138 40.627,83.443 31.921,84.666Z" style="fill-rule:nonzero;"/>
        </g>
    </g>
</svg>
